# Blender v2.80 (sub 75) OBJ File: 'Kunci.blend'
# www.blender.org
mtllib Kunci.mtl
o Key_Mesh
v 0.244644 0.412629 2.322484
v -0.244644 0.412629 2.322484
v -0.489288 -0.000000 2.322484
v -0.244644 -0.412630 2.322484
v 0.244644 -0.412630 2.322484
v 0.489288 -0.000000 2.322484
v 0.244644 0.412628 11.429740
v -0.244644 0.412628 11.325748
v -0.489288 -0.000002 11.212335
v -0.244644 -0.412632 11.325748
v 0.244644 -0.412632 11.496262
v 0.489288 -0.000002 11.407980
v 0.000000 -0.000000 2.322484
v 0.000000 -0.000002 11.740974
v -0.034728 -0.368735 11.337276
v 3.067081 -0.368735 11.337276
v -0.034728 0.368731 11.337276
v 3.067081 0.368731 11.337276
v -0.034728 0.368731 10.483471
v 3.067081 0.368731 10.483471
v -0.034728 -0.368734 10.483471
v 3.067081 -0.368734 10.483471
v 0.000281 0.000000 0.000152
v 0.000281 0.000000 -0.000152
v 0.000000 0.000000 -0.000304
v -0.000281 0.000000 -0.000152
v -0.000281 0.000000 0.000152
v 0.000000 0.000000 0.000305
v 0.000328 0.508875 0.000178
v 0.000328 0.000091 -0.000178
v 0.000000 0.508875 -0.000355
v -0.000328 0.508875 -0.000178
v -0.000328 0.000091 0.000178
v 0.000000 0.508875 0.000355
v 2.413953 0.522373 1.306537
v 2.413953 0.522374 -1.306535
v 0.000000 0.522374 -2.613072
v -2.413953 0.522374 -1.306536
v -2.413953 0.522373 1.306536
v -0.000000 0.522373 2.613072
v 2.682170 -0.000000 1.451707
v 2.682170 0.000000 -1.451706
v 0.000000 0.000000 -2.903413
v -2.682170 0.000000 -1.451707
v -2.682170 -0.000000 1.451707
v -0.000000 -0.000001 2.903413
v 2.413952 -0.522374 1.306536
v 2.413953 -0.522373 -1.306536
v 0.000000 -0.522373 -2.613072
v -2.413953 -0.522373 -1.306536
v -2.413953 -0.522374 1.306536
v -0.000000 -0.522374 2.613072
v 0.000328 -0.491915 0.016504
v 0.000328 -0.000091 -0.000178
v 0.000000 -0.491915 0.015972
v -0.000328 -0.491915 0.016149
v -0.000328 -0.000091 0.000178
v 0.000000 -0.491915 0.016682
v 0.114266 -0.368734 9.764941
v 2.184853 -0.368734 9.764941
v 0.114266 0.368731 9.764941
v 2.184853 0.368731 9.764941
v 0.114266 0.368731 8.911138
v 2.184853 0.368731 8.911138
v 0.114266 -0.368734 8.911138
v 2.184853 -0.368734 8.911138
v 0.097921 -0.381694 7.999104
v 0.097921 0.381694 7.999104
v 0.097921 -0.381694 7.235716
v 0.097921 0.381694 7.235716
v 2.441217 -0.381694 7.999104
v 2.441217 0.381694 7.999104
v 2.441217 -0.381694 7.235716
v 2.441217 0.381694 7.235716
vt 0.375000 0.000000
vt 0.625000 0.000000
vt 0.625000 0.250000
vt 0.375000 0.250000
vt 0.625000 0.500000
vt 0.375000 0.500000
vt 0.625000 0.750000
vt 0.375000 0.750000
vt 0.625000 1.000000
vt 0.375000 1.000000
vt 0.125000 0.500000
vt 0.125000 0.750000
vt 0.875000 0.500000
vt 0.875000 0.750000
vt 0.447635 0.038985
vt 0.446216 0.038985
vt 0.446216 0.011142
vt 0.447635 0.010820
vt 0.450418 0.038985
vt 0.449189 0.038985
vt 0.449189 0.011493
vt 0.450418 0.011142
vt 0.447961 0.038985
vt 0.447961 0.011142
vt 0.450724 0.009858
vt 0.452143 0.009858
vt 0.452143 0.038228
vt 0.450724 0.037701
vt 0.452461 0.009858
vt 0.453689 0.009858
vt 0.453689 0.037955
vt 0.452461 0.038228
vt 0.454918 0.009858
vt 0.454918 0.038022
vt 0.455934 0.036928
vt 0.455934 0.035509
vt 0.457163 0.036218
vt 0.457163 0.037637
vt 0.458391 0.036928
vt 0.458391 0.035509
vt 0.457163 0.034800
vt 0.446926 0.009858
vt 0.449189 0.009858
vt 0.451433 0.038985
vt 0.453689 0.038985
vt 0.453546 0.046176
vt 0.453546 0.039146
vt 0.455742 0.039146
vt 0.455742 0.046176
vt 0.450657 0.046176
vt 0.450657 0.039146
vt 0.453298 0.039146
vt 0.453298 0.046176
vt 0.448213 0.046176
vt 0.448213 0.039146
vt 0.450409 0.039146
vt 0.450409 0.046176
vt 0.446216 0.053367
vt 0.446216 0.046338
vt 0.448857 0.046338
vt 0.448857 0.053367
vt 0.458697 0.037440
vt 0.458697 0.034800
vt 0.460893 0.034800
vt 0.460893 0.037440
vt 0.461145 0.037440
vt 0.461145 0.034800
vt 0.463340 0.034800
vt 0.463340 0.037440
vt 0.450700 0.052174
vt 0.450700 0.046786
vt 0.452256 0.046338
vt 0.452256 0.052623
vt 0.478288 0.031625
vt 0.478288 0.026959
vt 0.479843 0.026182
vt 0.479843 0.031625
vt 0.478288 0.036290
vt 0.479843 0.037068
vt 0.454095 0.052174
vt 0.454095 0.046786
vt 0.455650 0.046338
vt 0.455650 0.052623
vt 0.474929 0.031625
vt 0.474929 0.036290
vt 0.473374 0.037068
vt 0.473374 0.031625
vt 0.474929 0.026959
vt 0.473374 0.026182
vt 0.467665 0.021082
vt 0.467665 0.014796
vt 0.469221 0.013898
vt 0.469221 0.021979
vt 0.462222 0.024224
vt 0.462222 0.026020
vt 0.456779 0.021082
vt 0.455224 0.021979
vt 0.456779 0.014796
vt 0.455224 0.013898
vt 0.462222 0.011654
vt 0.462222 0.009858
vt 0.473125 0.026630
vt 0.473125 0.034711
vt 0.471570 0.035160
vt 0.471570 0.026182
vt 0.483451 0.033957
vt 0.483451 0.026959
vt 0.485006 0.026182
vt 0.485006 0.033957
vt 0.483451 0.040956
vt 0.485006 0.041733
vt 0.469767 0.026630
vt 0.469767 0.034711
vt 0.468211 0.035160
vt 0.468211 0.026182
vt 0.483202 0.033957
vt 0.483202 0.040956
vt 0.481647 0.041733
vt 0.481647 0.033957
vt 0.483202 0.026959
vt 0.481647 0.026182
vt 0.470015 0.034711
vt 0.470015 0.026630
vt 0.486561 0.026959
vt 0.486561 0.033957
vt 0.486561 0.040956
vt 0.466656 0.034711
vt 0.466656 0.026630
vt 0.480092 0.040956
vt 0.480092 0.033957
vt 0.480092 0.026959
vt 0.483509 0.013898
vt 0.483509 0.021979
vt 0.481954 0.021082
vt 0.481954 0.014796
vt 0.476511 0.009858
vt 0.476511 0.011654
vt 0.469513 0.013898
vt 0.471068 0.014796
vt 0.469513 0.021979
vt 0.471068 0.021082
vt 0.476511 0.026020
vt 0.476511 0.024224
vt 0.449145 0.052623
vt 0.449145 0.046338
vt 0.476733 0.031625
vt 0.476733 0.026182
vt 0.476733 0.037068
vt 0.452540 0.052623
vt 0.452540 0.046338
vt 0.476484 0.031625
vt 0.476484 0.037068
vt 0.476484 0.026182
vt 0.464212 0.034638
vt 0.464212 0.026182
vt 0.466408 0.026182
vt 0.466408 0.034638
vt 0.461323 0.034638
vt 0.461323 0.026182
vt 0.463964 0.026182
vt 0.463964 0.034638
vt 0.458879 0.034638
vt 0.458879 0.026182
vt 0.461075 0.026182
vt 0.461075 0.034638
vt 0.455990 0.034638
vt 0.455990 0.026182
vt 0.458631 0.026182
vt 0.458631 0.034638
vt 0.463592 0.037440
vt 0.463592 0.034800
vt 0.465788 0.034800
vt 0.465788 0.037440
vt 0.466039 0.037962
vt 0.466039 0.035322
vt 0.468235 0.035322
vt 0.468235 0.037962
vn -1.0000 0.0000 0.0000
vn 0.0000 0.0000 -1.0000
vn 1.0000 0.0000 0.0000
vn 0.0000 0.0000 1.0000
vn 0.0000 -1.0000 -0.0000
vn 0.0000 1.0000 0.0000
vn -0.8602 0.5100 0.0000
vn -0.8602 -0.5100 -0.0000
vn 0.8602 -0.5100 -0.0000
vn 0.8602 0.5100 0.0000
vn -0.1575 0.6525 0.7412
vn -0.7122 0.2411 0.6592
vn -0.7122 -0.2411 0.6592
vn -0.2626 -0.6026 0.7536
vn 0.5558 -0.1548 0.8167
vn 0.5404 0.2785 0.7940
vn -0.9901 0.0002 -0.1407
vn -0.3606 0.0002 0.9327
vn 0.4760 0.0001 0.8794
vn 0.9901 0.0002 0.1407
vn 0.3606 0.0002 -0.9327
vn -0.4760 0.0001 -0.8794
vn 0.0000 0.0000 0.0000
vn -0.0477 0.9953 -0.0838
vn -0.0580 0.9931 -0.1018
vn -0.0083 1.0000 -0.0050
vn 0.0451 0.9951 0.0878
vn 0.0517 0.9936 0.1007
vn 0.0477 0.9953 0.0838
vn 0.0580 0.9931 0.1018
vn 0.0083 1.0000 0.0050
vn -0.0451 0.9951 -0.0878
vn -0.0517 0.9936 -0.1007
vn 0.8896 0.4568 0.0000
vn 0.4276 0.4392 -0.7901
vn -0.4276 0.4392 -0.7901
vn -0.8896 0.4568 -0.0000
vn -0.4276 0.4392 0.7901
vn 0.4276 0.4392 0.7901
vn 0.8896 -0.4568 0.0000
vn 0.4276 -0.4392 -0.7901
vn -0.4276 -0.4392 -0.7901
vn -0.8896 -0.4568 -0.0000
vn -0.4276 -0.4392 0.7901
vn 0.4276 -0.4392 0.7901
vn -0.0132 -0.9999 -0.0011
vn -0.0621 -0.9929 -0.1016
vn -0.0518 -0.9950 -0.0849
vn -0.0092 -0.9999 0.0064
vn 0.0507 -0.9933 0.1039
vn 0.0443 -0.9949 0.0907
vn 0.0609 -0.9929 0.1018
vn 0.0508 -0.9951 0.0852
vn 0.0139 -0.9999 0.0023
vn 0.0098 -0.9999 -0.0053
vn -0.0494 -0.9934 -0.1040
vn -0.0441 -0.9947 -0.0927
vn -0.9902 -0.0048 -0.1394
vn -0.3529 0.0309 0.9351
vn 0.4758 0.0291 0.8791
vn 0.9899 0.0045 0.1419
vn 0.3679 -0.0310 -0.9293
vn -0.4758 -0.0293 -0.8791
usemtl kunci
s off
f 67/1/1 68/2/1 70/3/1 69/4/1
f 69/4/2 70/3/2 74/5/2 73/6/2
f 73/6/3 74/5/3 72/7/3 71/8/3
f 71/8/4 72/7/4 68/9/4 67/10/4
f 69/11/5 73/6/5 71/8/5 67/12/5
f 74/5/6 70/13/6 68/14/6 72/7/6
s 1
f 1/15/6 2/16/6 8/17/6 7/18/6
f 2/19/7 3/20/7 9/21/7 8/22/7
f 3/20/8 4/23/8 10/24/8 9/21/8
f 4/25/5 5/26/5 11/27/5 10/28/5
f 5/29/9 6/30/9 12/31/9 11/32/9
f 6/30/10 1/33/10 7/34/10 12/31/10
f 2/35/2 1/36/2 13/37/2
f 3/38/2 2/35/2 13/37/2
f 4/39/2 3/38/2 13/37/2
f 5/40/2 4/39/2 13/37/2
f 6/41/2 5/40/2 13/37/2
f 1/36/2 6/41/2 13/37/2
f 7/18/11 8/17/11 14/42/11
f 8/22/12 9/21/12 14/43/12
f 9/21/13 10/24/13 14/43/13
f 10/28/14 11/27/14 14/44/14
f 11/32/15 12/31/15 14/45/15
f 12/31/16 7/34/16 14/45/16
f 15/46/4 16/47/4 18/48/4 17/49/4
f 17/50/6 18/51/6 20/52/6 19/53/6
f 19/54/2 20/55/2 22/56/2 21/57/2
f 21/58/5 22/59/5 16/60/5 15/61/5
f 16/62/3 22/63/3 20/64/3 18/65/3
f 21/66/1 15/67/1 17/68/1 19/69/1
f 24/70/17 23/71/17 29/72/17 30/73/17
f 25/74/18 24/75/18 30/76/18 31/77/18
f 26/78/19 25/74/19 31/77/19 32/79/19
f 27/80/20 26/81/20 32/82/20 33/83/20
f 28/84/21 27/85/21 33/86/21 34/87/21
f 23/88/22 28/84/22 34/87/22 29/89/22
f 30/90/23 29/91/24 35/92/25 36/93/26
f 31/94/27 30/90/23 36/93/26 37/95/28
f 32/96/29 31/94/27 37/95/28 38/97/30
f 33/98/23 32/96/29 38/97/30 39/99/31
f 34/100/32 33/98/23 39/99/31 40/101/33
f 29/91/24 34/100/32 40/101/33 35/92/25
f 36/102/34 35/103/34 41/104/34 42/105/34
f 37/106/35 36/107/35 42/108/35 43/109/35
f 38/110/36 37/106/36 43/109/36 44/111/36
f 39/112/37 38/113/37 44/114/37 45/115/37
f 40/116/38 39/117/38 45/118/38 46/119/38
f 35/120/39 40/116/39 46/119/39 41/121/39
f 42/105/40 41/104/40 47/122/40 48/123/40
f 43/109/41 42/108/41 48/124/41 49/125/41
f 44/111/42 43/109/42 49/125/42 50/126/42
f 45/115/43 44/114/43 50/127/43 51/128/43
f 46/119/44 45/118/44 51/129/44 52/130/44
f 41/121/45 46/119/45 52/130/45 47/131/45
f 48/132/46 47/133/47 53/134/48 54/135/49
f 49/136/50 48/132/46 54/135/49 55/137/51
f 50/138/52 49/136/50 55/137/51 56/139/53
f 51/140/54 50/138/52 56/139/53 57/141/55
f 52/142/56 51/140/54 57/141/55 58/143/57
f 47/133/47 52/142/56 58/143/57 53/134/48
f 54/144/58 53/145/58 23/71/58 24/70/58
f 55/146/59 54/147/59 24/75/59 25/74/59
f 56/148/60 55/146/60 25/74/60 26/78/60
f 57/149/61 56/150/61 26/81/61 27/80/61
f 58/151/62 57/152/62 27/85/62 28/84/62
f 53/153/63 58/151/63 28/84/63 23/88/63
f 59/154/4 60/155/4 62/156/4 61/157/4
f 61/158/6 62/159/6 64/160/6 63/161/6
f 63/162/2 64/163/2 66/164/2 65/165/2
f 65/166/5 66/167/5 60/168/5 59/169/5
f 60/170/3 66/171/3 64/172/3 62/173/3
f 65/174/1 59/175/1 61/176/1 63/177/1
